<?xml version="1.0" encoding="UTF-8" standalone="no"?>
<!-- Created with Inkscape (http://www.inkscape.org/) -->

<svg
   width="64"
   height="64"
   viewBox="0 0 16.933332 16.933332"
   version="1.1"
   id="svg5"
   inkscape:version="1.2 (dc2aedaf03, 2022-05-15)"
   sodipodi:docname="inspector-hex.svg"
   inkscape:export-filename="inspector-hex.png"
   inkscape:export-xdpi="409.60001"
   inkscape:export-ydpi="409.60001"
   xmlns:inkscape="http://www.inkscape.org/namespaces/inkscape"
   xmlns:sodipodi="http://sodipodi.sourceforge.net/DTD/sodipodi-0.dtd"
   xmlns="http://www.w3.org/2000/svg"
   xmlns:svg="http://www.w3.org/2000/svg">
  <sodipodi:namedview
     id="namedview7"
     pagecolor="#ffffff"
     bordercolor="#000000"
     borderopacity="0.25"
     inkscape:showpageshadow="2"
     inkscape:pageopacity="0.0"
     inkscape:pagecheckerboard="0"
     inkscape:deskcolor="#d1d1d1"
     inkscape:document-units="mm"
     showgrid="false"
     inkscape:zoom="3.659624"
     inkscape:cx="-67.22002"
     inkscape:cy="100.83003"
     inkscape:window-width="3840"
     inkscape:window-height="2066"
     inkscape:window-x="-11"
     inkscape:window-y="-11"
     inkscape:window-maximized="1"
     inkscape:current-layer="layer1" />
  <defs
     id="defs2" />
  <g
     inkscape:label="Layer 1"
     inkscape:groupmode="layer"
     id="layer1"
     transform="translate(-126.61598,-89.596381)">
    <circle
       style="opacity:0.99;fill:#006666;fill-opacity:1;stroke:none;stroke-width:0.264583"
       id="path741"
       cx="135.08264"
       cy="98.063049"
       r="7.9375" />
    <g
       id="g1336"
       transform="translate(3.3893672,3.3893686)">
      <g
         id="g1059"
         transform="rotate(-45,130.7759,90.114776)">
        <rect
           style="fill:#ffffff;stroke:#ffffff;stroke-width:0.529167;stroke-linecap:round;stroke-linejoin:round;stroke-dasharray:none"
           id="rect1055"
           width="0.52916664"
           height="7.9374995"
           x="127.93637"
           y="92.591232" />
        <path
           sodipodi:type="star"
           style="fill:#006666;fill-opacity:1;stroke:#ffffff;stroke-width:3.26803;stroke-linecap:round;stroke-linejoin:round;stroke-dasharray:none"
           id="path739"
           inkscape:flatsided="true"
           sodipodi:sides="6"
           sodipodi:cx="43.234173"
           sodipodi:cy="59.862705"
           sodipodi:r1="23.279491"
           sodipodi:r2="20.160631"
           sodipodi:arg1="0.52359878"
           sodipodi:arg2="1.0471976"
           inkscape:rounded="0"
           inkscape:randomized="0"
           d="M 63.394804,71.502451 43.234173,83.142197 23.073542,71.502451 l 0,-23.279492 20.160631,-11.639745 20.160631,11.639746 z"
           transform="matrix(0.161922,0,0,0.161922,121.20039,82.636972)" />
      </g>
      <g
         aria-label="0x"
         id="text1169"
         style="font-size:3.52778px;stroke:#000000;stroke-width:0.264583;stroke-linejoin:round">
        <g
           id="path1268">
          <path
             style="color:#000000;-inkscape-font-specification:'Iosevka X-dev';fill:#ffffff;stroke:none;stroke-linejoin:miter;-inkscape-stroke:none"
             d="m 129.60788,94.798439 q -0.0988,0 -0.19403,-0.03881 -0.0952,-0.04233 -0.1658,-0.116416 -0.067,-0.07408 -0.11289,-0.162278 -0.0459,-0.09172 -0.0776,-0.186973 -0.0317,-0.09525 -0.0529,-0.1905 -0.0212,-0.09878 -0.0317,-0.197555 -0.0106,-0.102306 -0.0176,-0.201084 -0.004,-0.102305 -0.004,-0.201083 v -0.0035 q 0,-0.09878 0.004,-0.197556 0.007,-0.102305 0.0176,-0.201083 0.0106,-0.102306 0.0317,-0.201084 0.0212,-0.09878 0.0529,-0.194028 0.0318,-0.09525 0.0776,-0.186972 0.0459,-0.09172 0.11642,-0.162278 0.0741,-0.07055 0.16933,-0.109361 0.0953,-0.04233 0.19403,-0.04233 0.1023,0 0.19403,0.04233 0.0953,0.04233 0.16227,0.116417 0.067,0.07408 0.11289,0.165805 0.0459,0.08819 0.0776,0.183445 0.0317,0.09525 0.0494,0.194028 0.0212,0.09525 0.0318,0.197556 0.0106,0.09878 0.0141,0.197555 0.007,0.09878 0.007,0.201084 0,0.09878 -0.007,0.201083 -0.004,0.09878 -0.0141,0.197556 -0.0106,0.09878 -0.0318,0.197556 -0.0212,0.09878 -0.0529,0.194027 -0.0317,0.09525 -0.0776,0.186973 -0.0459,0.08819 -0.11641,0.162278 -0.067,0.07408 -0.16228,0.116416 -0.0952,0.03881 -0.19403,0.03881 z m -0.381,-1.146528 0.74084,-0.585612 q -0.0106,-0.0635 -0.0212,-0.127 -0.0106,-0.0635 -0.0282,-0.123472 -0.0176,-0.0635 -0.0423,-0.119945 -0.0247,-0.05997 -0.06,-0.112889 -0.0318,-0.05644 -0.0882,-0.09172 -0.0565,-0.03528 -0.11995,-0.03528 -0.06,0 -0.11641,0.03175 -0.0529,0.03175 -0.0882,0.08114 -0.0317,0.04939 -0.0564,0.105833 -0.0212,0.05292 -0.0388,0.112889 -0.0176,0.05644 -0.0317,0.116417 -0.0106,0.05997 -0.0212,0.119945 -0.007,0.05644 -0.0141,0.116416 -0.007,0.05997 -0.0106,0.119945 -0.004,0.05997 -0.004,0.119944 0,0.05997 0,0.119945 0,0.03881 0,0.07761 0,0.03528 0,0.07408 z m 0.381,0.899583 q 0.06,0 0.11289,-0.03175 0.0529,-0.03528 0.0882,-0.08114 0.0353,-0.04939 0.0564,-0.105833 0.0247,-0.05644 0.0423,-0.112889 0.0176,-0.05997 0.0282,-0.116417 0.0141,-0.05997 0.0212,-0.119944 0.0106,-0.05997 0.0176,-0.119945 0.007,-0.05997 0.0106,-0.119944 0.004,-0.05997 0.004,-0.119945 0,-0.05997 0,-0.123472 0,-0.03528 0,-0.07056 0,-0.0388 0,-0.07761 l -0.74083,0.585612 q 0.0106,0.0635 0.0212,0.127 0.0106,0.0635 0.0282,0.127 0.0176,0.05997 0.0423,0.119944 0.0247,0.05997 0.06,0.112889 0.0353,0.05292 0.0882,0.09172 0.0564,0.03528 0.11994,0.03528 z"
             id="path745" />
          <path
             style="color:#000000;-inkscape-font-specification:'Iosevka X-dev';fill:#ffffff;stroke:none;stroke-linejoin:miter;-inkscape-stroke:none"
             d="m 129.61523,92.074219 c -0.0833,0 -0.16627,0.01681 -0.24414,0.05078 -0.0783,0.03192 -0.14981,0.07852 -0.21093,0.136719 -6.7e-4,6.6e-4 -10e-4,0.0013 -0.002,0.002 -0.0571,0.05716 -0.10396,0.124012 -0.14062,0.197265 -0.0332,0.06658 -0.0627,0.133629 -0.0859,0.203125 -0.0227,0.06812 -0.0415,0.138434 -0.0566,0.208985 -0.0151,0.07055 -0.0257,0.142031 -0.0332,0.214844 -0.007,0.0676 -0.0128,0.13523 -0.0176,0.205078 -6.9e-4,0.0013 -0.001,0.0026 -0.002,0.0039 -0.003,0.06763 -0.004,0.135486 -0.004,0.203125 v 0.0039 c 0,0.06764 0.001,0.137167 0.004,0.207031 6.5e-4,0.0013 0.001,0.0026 0.002,0.0039 0.005,0.06734 0.0104,0.135502 0.0176,0.205078 0.007,0.07055 0.0181,0.14062 0.0332,0.210937 -1e-5,6.67e-4 -1e-5,0.0013 0,0.002 0.0151,0.06802 0.0341,0.135473 0.0566,0.203125 0.0232,0.06958 0.0526,0.138442 0.0859,0.205079 -1e-5,6.67e-4 -1e-5,0.0013 0,0.002 0.0358,0.06873 0.0807,0.131839 0.13281,0.189453 6.6e-4,6.74e-4 0.001,0.0013 0.002,0.002 0.0589,0.06178 0.12848,0.111556 0.20703,0.146484 0.001,6.89e-4 0.003,0.0014 0.004,0.002 0.0783,0.03191 0.16095,0.04883 0.24414,0.04883 0.0832,0 0.16586,-0.01691 0.24414,-0.04883 10e-4,-6.44e-4 0.003,-0.0013 0.004,-0.002 0.0787,-0.03496 0.14809,-0.08577 0.20508,-0.148437 0.0547,-0.05769 0.10056,-0.119982 0.13672,-0.189453 6.7e-4,-6.6e-4 0.001,-0.0013 0.002,-0.002 0.0334,-0.06664 0.0608,-0.135499 0.084,-0.205079 0.0227,-0.06812 0.0415,-0.138433 0.0566,-0.208984 0.0151,-0.07027 0.0276,-0.140432 0.0352,-0.210937 0.007,-0.06723 0.0109,-0.133903 0.0137,-0.201172 v -0.0039 c 0.005,-0.06974 0.008,-0.139328 0.008,-0.207031 0,-0.06924 -0.003,-0.13787 -0.008,-0.205078 v -0.0059 c -0.003,-0.06707 -0.006,-0.134147 -0.0137,-0.201172 -0.007,-0.07095 -0.0186,-0.140115 -0.0332,-0.207031 l -0.002,-0.0059 c -0.0128,-0.07 -0.0303,-0.139478 -0.0527,-0.207031 -0.023,-0.06924 -0.0507,-0.136834 -0.084,-0.201172 l -0.002,-0.002 c -0.0355,-0.07049 -0.0787,-0.135642 -0.13086,-0.193359 -0.0568,-0.06286 -0.12648,-0.113295 -0.20508,-0.148438 -0.0781,-0.03606 -0.16355,-0.05273 -0.25,-0.05273 z m -0.008,0.513672 c 0.0178,0 0.032,0.0039 0.0508,0.01563 0.0202,0.01263 0.0324,0.02617 0.043,0.04492 0.001,0.0026 0.003,0.0052 0.004,0.0078 0.0186,0.02794 0.0356,0.05771 0.0488,0.08984 -1e-5,6.67e-4 -1e-5,0.0013 0,0.002 0.0138,0.03151 0.0269,0.06681 0.0371,0.103515 -1e-5,6.67e-4 -1e-5,0.0013 0,0.002 0.0102,0.03476 0.0192,0.07014 0.0254,0.107421 l 0.008,0.05078 -0.46485,0.367187 c 5e-5,-0.03639 0.001,-0.07297 0.004,-0.109375 1e-5,-6.67e-4 1e-5,-0.0013 0,-0.002 0.002,-0.0375 0.005,-0.0738 0.01,-0.111328 0.005,-0.03975 0.009,-0.07787 0.0137,-0.115234 l 0.0176,-0.107422 0.002,-0.0059 c 0.008,-0.03486 0.0172,-0.06897 0.0273,-0.101562 6.7e-4,-6.6e-4 0.001,-0.0013 0.002,-0.002 0.0103,-0.03502 0.0213,-0.06562 0.0332,-0.0957 0.013,-0.02962 0.027,-0.05663 0.043,-0.08203 0.0126,-0.01762 0.0258,-0.03108 0.0449,-0.04297 0.0201,-0.01133 0.0341,-0.01563 0.0508,-0.01563 z m 0.25,1.037109 c -4e-5,0.03639 -10e-4,0.07297 -0.004,0.109375 -1e-5,6.67e-4 -1e-5,0.0013 0,0.002 -0.002,0.0375 -0.005,0.0738 -0.01,0.111328 -0.004,0.03739 -0.011,0.07583 -0.0176,0.113281 -8e-5,0.0026 -8e-5,0.0052 0,0.0078 -0.004,0.03494 -0.0112,0.06828 -0.0195,0.103516 -4e-5,0.002 -4e-5,0.0039 0,0.0059 -0.006,0.03178 -0.0153,0.06683 -0.0254,0.101562 -0.0102,0.0328 -0.0225,0.06625 -0.0371,0.09961 -7.5e-4,0.0026 -0.001,0.0052 -0.002,0.0078 -0.01,0.02682 -0.0241,0.05054 -0.041,0.07422 -0.0126,0.01557 -0.0304,0.03074 -0.0508,0.04492 -0.0153,0.0089 -0.027,0.01367 -0.043,0.01367 -0.0164,0 -0.0286,-0.0042 -0.0449,-0.01367 -0.0212,-0.01626 -0.0389,-0.03388 -0.0527,-0.05469 -0.0186,-0.02794 -0.0336,-0.05771 -0.0469,-0.08984 -0.0144,-0.03507 -0.0269,-0.07086 -0.0371,-0.105469 -0.0105,-0.03798 -0.0191,-0.07561 -0.0254,-0.113281 l -0.008,-0.05078 z"
             id="path747"
             sodipodi:nodetypes="ccccccscccssccccccccccccsccccccccccscccccccccccccccccccccccccccccccccccccccccccccccccsccccccc" />
        </g>
        <g
           id="path1270"
           style="fill:#ffffff">
          <path
             style="color:#000000;-inkscape-font-specification:'Iosevka X-dev';fill:#ffffff;stroke:none;stroke-linejoin:miter"
             d="m 130.6521,94.798439 0.56798,-0.917223 -0.56798,-0.917223 h 0.32103 l 0.39864,0.663223 0.39864,-0.663223 h 0.32103 l -0.56797,0.917223 0.56797,0.917223 h -0.32103 l -0.39864,-0.663223 -0.39864,0.663223 z"
             id="path1324" />
          <path
             style="color:#000000;-inkscape-font-specification:'Iosevka X-dev';fill:#ffffff;stroke:none;stroke-linejoin:miter"
             d="m 130.65234,92.832031 c -0.1034,-2.44e-4 -0.1671,0.112888 -0.11328,0.201172 l 0.52539,0.847656 -0.52539,0.847657 c -0.0562,0.08867 0.008,0.20434 0.11328,0.203125 h 0.32032 c 0.0465,-1.05e-4 0.0894,-0.02457 0.11328,-0.06445 l 0.28515,-0.474609 0.28516,0.474609 c 0.0238,0.03988 0.0668,0.06434 0.11328,0.06445 h 0.32227 c 0.10409,-3.41e-4 0.16704,-0.115201 0.11132,-0.203125 l -0.52343,-0.847657 0.52343,-0.847656 c 0.0534,-0.08754 -0.009,-0.199899 -0.11132,-0.201172 h -0.32227 c -0.0465,1.05e-4 -0.0894,0.02457 -0.11328,0.06445 l -0.28516,0.47461 -0.28515,-0.47461 c -0.0238,-0.03988 -0.0668,-0.06434 -0.11328,-0.06445 z"
             id="path1326"
             sodipodi:nodetypes="ccccccccccccccccccccc" />
        </g>
      </g>
    </g>
  </g>
</svg>
